<?xml version="1.0" encoding="utf-8"?>
<!-- Generator: Adobe Illustrator 19.0.0, SVG Export Plug-In . SVG Version: 6.00 Build 0)  -->
<svg version="1.1" id="Layer_1" xmlns="http://www.w3.org/2000/svg" xmlns:xlink="http://www.w3.org/1999/xlink" x="0px" y="0px"
	 viewBox="0 0 445.4 417.3" style="enable-background:new 0 0 445.4 417.3;" xml:space="preserve">
<style type="text/css">
	.st0{fill:#1A1A1A;}
	.st1{fill:none;}
	.st2{fill:#FFFFFF;}
</style>
<g>
	<path class="st0" d="M365.5,147.2C365.5,147.2,365.5,147.2,365.5,147.2C365.5,147.2,365.5,147.2,365.5,147.2
		C365.5,147.2,365.5,147.2,365.5,147.2z"/>
	<path class="st1" d="M265.3,236.5c0,0-30-17.9-12.7-50.5l-0.3,0.1l-8.9,3.6c0,0-0.2,0.3-0.6,0.8c-3.9,5.7-24,39.3,24.4,57.7
		C267.2,248.3,273.3,241.9,265.3,236.5z"/>
	<path class="st0" d="M444.7,178.1c-1-2.9-2.9-5-5.5-6.1l-0.3-0.1l-0.3-0.1c-0.1,0-1.6-0.4-4.3-1.1c-4.1,2.9-15.4,11.9-15,22.2
		c0.3,6.8,5.8,13.2,16.4,18.9C439.1,205.5,447.9,187.8,444.7,178.1z M436.6,193.8c-2.2,0.2-4.3-3-4.5-7c-0.3-4,1.3-7.4,3.5-7.5
		c2.2-0.2,4.3,3,4.5,7C440.4,190.3,438.8,193.6,436.6,193.8z"/>
	<path class="st0" d="M365.5,147.2C365.5,147.2,365.5,147.2,365.5,147.2C365.5,147.2,365.5,147.2,365.5,147.2
		C365.5,147.2,365.5,147.2,365.5,147.2C365.5,147.2,365.5,147.2,365.5,147.2C365.5,147.2,365.5,147.2,365.5,147.2z"/>
	<path class="st0" d="M413.5,191.3c-0.4-10.6,8.3-19.5,14-24.1c-5-1.6-11.6-3.9-19.4-7c-5.1-2.1-10.8-4.6-16.7-7.5c-1-0.5-2-1-3-1.5
		c-0.7-0.4-1.5-0.7-2.2-1.1c0,0,0,0,0,0l0,0c-3.6-1.9-7.3-3.8-11.1-6c-3.3-2.8-31.2-25-84.6-21.3c-35.7,2.5-74.7,16.1-115.8,40.4
		c-1.6,0.9-47.7,25.3-130.1,31c-6.3,0.4-12.7,0.7-19.1,0.9c-0.2,2.4-0.3,4.7-0.3,7.1c6.7-0.1,13.3,0.2,19.9-0.8c0,0,0,0,0,0
		c85-7,131.1-31.1,133-32.1l0.1-0.1c40.2-23.8,78.1-37.2,112.8-39.6c40.4-2.8,65.6,10.2,75.3,16.5c0,0,0,0,0,0c0,0,0,0,0,0
		c0,0,0,0,0,0c0,0,0,0,0,0c0,0,0,0,0,0c-0.1,0-0.1,0.1-0.2,0.1c0,0-0.1,0-0.1,0.1c-0.3,0.1-0.5,0.2-0.8,0.4c-0.1,0-0.1,0-0.1,0.1
		c-0.3,0.1-0.6,0.3-0.9,0.4c0,0,0,0-0.1,0c-0.7,0.3-1.5,0.6-2.2,1c0,0-0.1,0-0.1,0c-0.3,0.2-0.7,0.3-1.1,0.5c-0.1,0-0.1,0.1-0.2,0.1
		c-0.3,0.1-0.7,0.3-1,0.4c-0.1,0-0.2,0.1-0.3,0.1c-0.3,0.1-0.7,0.3-1,0.5c-0.1,0-0.1,0.1-0.2,0.1c-0.9,0.4-1.8,0.8-2.7,1.2
		c-0.1,0-0.1,0.1-0.2,0.1c-0.4,0.2-0.8,0.3-1.2,0.5c-0.1,0-0.2,0.1-0.3,0.1c-0.4,0.2-0.8,0.3-1.1,0.5c-0.1,0-0.2,0.1-0.3,0.1
		c-0.4,0.2-0.8,0.3-1.2,0.5c-0.1,0-0.2,0.1-0.3,0.1c-1,0.4-2.1,0.9-3.1,1.3c-0.1,0-0.2,0.1-0.3,0.1c-0.4,0.2-0.9,0.4-1.3,0.6
		c-0.1,0.1-0.3,0.1-0.4,0.2c-0.4,0.2-0.8,0.3-1.2,0.5c-0.2,0.1-0.3,0.1-0.4,0.2c-0.4,0.2-0.9,0.4-1.3,0.5c-0.1,0-0.2,0.1-0.3,0.1
		c-1.1,0.5-2.3,0.9-3.4,1.4c-0.1,0-0.1,0.1-0.2,0.1c-0.5,0.2-1,0.4-1.5,0.6l-0.4,0.2c-0.4,0.2-0.9,0.4-1.3,0.5
		c-0.1,0.1-0.3,0.1-0.4,0.2c-0.5,0.2-1,0.4-1.5,0.6c-0.1,0-0.2,0.1-0.3,0.1c-1.2,0.5-2.4,1-3.6,1.4c-0.1,0-0.2,0.1-0.3,0.1
		c-0.5,0.2-1,0.4-1.5,0.6c-0.2,0.1-0.3,0.1-0.5,0.2c-0.5,0.2-0.9,0.3-1.4,0.5c-0.2,0.1-0.3,0.1-0.5,0.2c-0.5,0.2-1,0.4-1.5,0.5
		c-0.1,0.1-0.2,0.1-0.3,0.1c-1.2,0.5-2.5,0.9-3.7,1.4c-0.1,0-0.2,0.1-0.3,0.1c-0.5,0.2-1,0.4-1.5,0.5c-0.2,0.1-0.3,0.1-0.5,0.2
		c-0.5,0.2-0.9,0.3-1.4,0.5c-0.2,0.1-0.3,0.1-0.5,0.2c-0.5,0.2-0.9,0.3-1.4,0.5c-0.1,0.1-0.3,0.1-0.4,0.1c-1.2,0.4-2.4,0.8-3.6,1.2
		c-0.1,0-0.2,0.1-0.4,0.1c-0.5,0.2-0.9,0.3-1.4,0.5c-0.2,0.1-0.3,0.1-0.5,0.2c-0.4,0.1-0.8,0.3-1.3,0.4L306,170
		c-0.4,0.1-0.9,0.3-1.3,0.4c-0.1,0-0.3,0.1-0.4,0.1c-1.2,0.4-2.3,0.7-3.5,1.1c-0.1,0-0.3,0.1-0.4,0.1c-0.4,0.1-0.8,0.3-1.3,0.4
		c-0.2,0-0.4,0.1-0.5,0.1c-0.4,0.1-0.8,0.2-1.2,0.3c-0.2,0.1-0.4,0.1-0.5,0.1c-0.4,0.1-0.8,0.2-1.2,0.3c-0.2,0-0.3,0.1-0.4,0.1
		c-1.1,0.3-2.1,0.6-3.2,0.8c-0.1,0-0.3,0.1-0.4,0.1c-0.4,0.1-0.7,0.2-1.1,0.3c-0.2,0-0.3,0.1-0.5,0.1c-0.3,0.1-0.7,0.1-1,0.2
		c-0.2,0-0.3,0.1-0.5,0.1c-0.4,0.1-0.7,0.1-1,0.2c-0.1,0-0.3,0.1-0.4,0.1c-1,0.2-1.9,0.4-2.8,0.5c-0.1,0-0.3,0.1-0.4,0.1
		c-0.3,0-0.6,0.1-0.9,0.1c-0.2,0-0.3,0-0.5,0.1c-0.3,0-0.6,0.1-0.8,0.1c-0.1,0-0.3,0-0.5,0.1c-0.3,0-0.6,0.1-0.8,0.1
		c-0.1,0-0.3,0-0.4,0c-0.2,0-0.4,0-0.6,0l-0.6,0c-0.9,0.1-1.7,0.1-2.5,0.1c-0.4,0-1.2,0-2.6,0.1c-3,0.2-9.2,1.1-18.2,4.7
		c0,0-0.1,0-0.1,0l-11.3,5.2l-0.1,0c-1.1,0.6-2.2,1.2-3.3,1.8c-2.8,1.6-5.6,3.2-8.4,5.1c0,0,0,0,0,0c-4.6,2.9-9.2,6.2-13.9,9.8
		c-2.5,1.9-5,3.9-7.6,6.1c-7.7,6.3-15.5,13.5-23.5,21.5c-0.2,0.2-16.5,16.2-42.4,33.7c-21.8,14.8-54.5,33.5-90.9,42
		c32.8,51.7,90.6,86,156.4,86c1.6,0,3.2,0,4.8-0.1c4.2-0.8,8.5-1.8,12.8-3l1-0.2l0.7-0.7c2.5-2.7,60.2-65.1,78.8-101.7
		c8-3.4,53.4-23,75.4-37.3c1.1,0.1,2.6,0.2,4.5,0.1c0.7,0,1.5-0.1,2.3-0.3c0.4-0.1,0.9-0.2,1.4-0.2c0.3-0.1,0.6-0.1,0.9-0.2
		c0.2,0,0.4-0.1,0.6-0.1c0.5-0.1,1.1-0.3,1.6-0.4c2.4-0.7,5.1-1.8,8-3.4c2.5-1.4,5.3-3.2,8.1-5.4c4.1-3.3,8.4-7.6,12.9-13.3
		c0.2-0.2,1.2-1.5,1.4-1.7c-4.1,0.9-8.5,2-12.8,3.1c-5,1.3-10.1,2.6-14.7,3.9c-9.3,2.5-16.9,4.8-19.8,5.9c-0.2,0.9-1.3,4.3-2.6,4.4
		l-1,0l-0.7-0.7c-0.7-0.7-0.7-1-0.6-4.5c0.3-5.6,1-6.4,1.1-6.7l1.3-1.4l1.3-0.5c1.4,0.1,4.5-0.3,6.8-0.5c4.2-0.3,9.4-1,14.8-1.8
		c4.9-0.8,9.9-1.6,14.4-2.5c6.7-1.2,12.4-2.4,15.4-2.9c1.3-1.9,2.6-3.8,3.8-5.8C420.2,207.7,413.9,199.9,413.5,191.3z M268.1,247.3
		c-48.4-18.4-28.3-51.9-24.4-57.7c0.4-0.5,0.6-0.8,0.6-0.8l8.9-3.6l0.3-0.1c-17.3,32.6,12.7,50.5,12.7,50.5
		C274.2,240.9,268.1,247.3,268.1,247.3z M344.4,190.6c-3.8,2.4-8.3,0.8-12.6-1.1c-0.4-0.2-0.9-0.4-1.4-0.6c-0.7-0.3-1.3-0.6-1.8-0.8
		c0,0,0-0.1,0.1-0.1c-2.1-1.2-4.9-2.9-9.9-5.7c5.8-0.6,9.2-1.2,11.7-1.4c1.8-2.5,4-4.3,6.6-4.5c4.1-0.3,8.6,3.2,10.9,5.5
		c0,0.1,0,0.2-0.1,0.3c0.2,0.2,0.3,0.3,0.5,0.5c0.2,0.2,0.2,0.5,0.2,0.9c0.1,0.1,0.2,0.2,0.3,0.3
		C348.1,187.9,346.3,189.8,344.4,190.6z"/>
	<path class="st0" d="M313.9,294.7c-16.9,31.3-56.8,76.7-72.7,94.2c68.5-12.4,123.8-63,143.2-128.8
		C382.3,262,326.3,289.4,313.9,294.7z"/>
	<path class="st0" d="M208.4,24.8c-94,0-171.8,71.1-182.3,162.4c5.7-0.2,11.4-0.5,17.1-0.9c79.1-5.5,123-28.1,126.4-29.9
		c42.2-25,82.5-39,119.5-41.6c49-3.4,77.9,13.6,87.9,21C348.8,70.6,283.9,24.8,208.4,24.8z"/>
	<path class="st0" d="M385.4,151.1C385.4,151.1,385.4,151.1,385.4,151.1C385.4,151.1,385.4,151.1,385.4,151.1L385.4,151.1z"/>
	<path class="st2" d="M384.5,260c0,0,0,0.1,0,0.1C384.6,260.1,384.6,260,384.5,260z"/>
	<path class="st0" d="M398.7,255.9c-0.7,0.2-1.4,0.4-2.1,0.6c-0.1,0-0.3,0.1-0.4,0.1c-21.4,83.7-97.4,145.7-187.6,145.7
		C101.9,402.3,15,315.4,15,208.6C15,101.9,101.9,15,208.6,15c82.7,0,153.4,52.1,181.1,125.2c0.6,0.3,1.2,0.6,1.7,0.9
		c0,0,1.5,0.8,2.1,1.1c1,0.5,1.9,1,2.8,1.4c4,1.9,8,3.8,12.1,5.5C382.9,63,303,0,208.6,0C93.6,0,0,93.6,0,208.6
		s93.6,208.6,208.6,208.6c101.3,0,186-72.6,204.7-168.5c-1.6,1.1-3.2,2.1-4.9,3C405.3,253.5,402,254.9,398.7,255.9z"/>
</g>
</svg>
