<svg xmlns:dc="http://purl.org/dc/elements/1.1/" xmlns:cc="http://creativecommons.org/ns#" xmlns:rdf="http://www.w3.org/1999/02/22-rdf-syntax-ns#" xmlns:svg="http://www.w3.org/2000/svg" xmlns="http://www.w3.org/2000/svg" xmlns:sodipodi="http://sodipodi.sourceforge.net/DTD/sodipodi-0.dtd" xmlns:inkscape="http://www.inkscape.org/namespaces/inkscape" xml:space="preserve" height="100%" width="100%" viewBox="0 0 616 604" inkscape:version="0.48.1 " version="1.1" id="svg2985">
  <style>
	.style0{
		fill:	#d9dadc;
		fill-rule:	evenodd;
	}
	.style1{
		fill:	#ececec;
	}
	.style2{
		fill:	#b3b3b3;
		fill-rule:	evenodd;
	}
	.style3{
		fill:	#080808;
		fill-rule:	evenodd;
	}

    svg:hover #left-eye {
        fill: #ff0000;
    }

    svg:hover #right-eye {
        fill: #ff0000;
    }

    #left-eye, #right-eye {
        transition: fill 2s;
    }

</style>
  <metadata id="metadata2991">
    <rdf:RDF>
      <cc:Work rdf:about="">
        <dc:format>image/svg+xml</dc:format>
        <dc:type rdf:resource="http://purl.org/dc/dcmitype/StillImage"/>
        <dc:title/>
      </cc:Work>
    </rdf:RDF>
  </metadata>
  <defs id="defs2989"/>
  <g id="g2993" inkscape:groupmode="layer" inkscape:label="badger-logo.jpg" transform="matrix(1.25,0,0,-1.25,-77.235149,869.89473)">
    <g id="g2995">
      <g id="g3005"/>
      <g id="g3011">
        <g id="g3069">
          <path inkscape:connector-curvature="0" id="path3037-3-0" d="m 116.9 581.3 c -3.5 -0.5 -5.8 -0.4 -8 0.6 -7.5 3.3 -13.1 1.8 -18.1 -4.5 -1.4 -1.7 -3.4 -4.2 -5.2 -4.2 -3 0 -2 3.6 -2.7 5.6 -2.4 7.2 -3.3 14.6 -3.8 22.1 -0.3 4.2 0.9 8.1 4.7 10.3 3.9 2.2 7.7 0.5 11.3 -1.6 11 -6.4 15.6 -17.4 21.8 -28.3" class="style0"/>
          <path inkscape:connector-curvature="0" id="right-eye" d="m 376.8 362.2 c 31.7 4.7 50.5 15.3 62.5 48.1 1.5 4.3 3.3 8.6 2.4 13.3 -1.3 6.6 -4.6 8.3 -10.6 5.3 -7.8 -3.9 -14.4 -9.7 -21 -15.3 -13.9 -11.8 -27.7 -23.6 -39.6 -37.5 -2.2 -2.6 -4.4 -5.6 -2.8 -9 1.8 -3.7 5.5 -4.7 9.2 -4.9" class="style0"/>
          <path inkscape:connector-curvature="0" id="path3037-3" d="m 509.3 595.2 c 2.9 -0.4 4.7 -0.3 6.6 0.5 6.2 2.6 10.7 1.4 14.9 -3.6 1.2 -1.4 2.8 -3.4 4.2 -3.4 2.5 0 1.6 2.9 2.2 4.5 2 5.7 2.7 11.6 3.1 17.6 0.2 3.3 -0.8 6.5 -3.9 8.2 -3.2 1.7 -6.3 0.4 -9.3 -1.3 -9 -5.1 -12.8 -13.8 -17.9 -22.5" class="style0"/>
          <path inkscape:connector-curvature="0" id="left-eye" d="m 228.2 365.2 c -25.5 3.8 -40.6 12.2 -50.2 38.5 -1.2 3.4 -2.7 6.9 -1.9 10.7 1 5.3 3.7 6.6 8.5 4.2 6.3 -3.1 11.6 -7.8 16.9 -12.3 11.2 -9.4 22.3 -18.9 31.8 -30 1.8 -2.1 3.6 -4.5 2.2 -7.2 -1.4 -2.9 -4.4 -3.8 -7.4 -3.9" class="style0"/>
          <path d="m 104.9 620 c 0 0 49.8 71.8 150.7 73.3 73.9 1.1 78.6 -144.8 75.8 -222.9 -1 -28.5 -3 -48 -3 -48 l -61.4 -9.9 -63.7 31.1 z" id="hair-flick" inkscape:connector-curvature="0" sodipodi:nodetypes="csscccc" class="style1"/>
          <path sodipodi:nodetypes="ccsacccccccscccsc" inkscape:connector-curvature="0" id="hair" d="m 454.7 539.1 c -5.8 -18.4 -8.2 -37.6 -14 -55.9 -7.1 -22.2 -12.2 -36.3 -34.8 -45.4 -30.1 -12.2 -61.8 -25 -94.5 -30.1 -6.8 -1.1 -13.5 -4.1 -20.6 -0 -28.9 16.3 -50.9 18.1 -81.5 31.1 -14.6 6.2 -32.6 12.9 -40.4 26.8 -7.5 13.3 -10.3 27.9 -13.7 42.4 -3.8 16 -7.2 32.1 -12.9 47.4 -4.1 11 -10.5 21.1 -16.2 31.4 -6.6 11.9 -21.5 19.6 -20 32.4 3.9 10.5 17.3 16.5 26.5 5.5 26.5 -31.9 62.3 -65.4 151 -100.1 -79.8 78.8 -77.9 103.4 -27.2 169.1 1.2 0.9 2.6 1.3 4.2 1.4 34.2 1.2 76.3 2.6 114.4 -7.5 66.1 -17.6 124.9 -38.3 130.6 -64.7" class="style2"/>
          <path d="m 93.7 623.8 c -6 0.3 -12 0.4 -18 0.2 -9.3 -0.4 -14.5 -5.5 -13.8 -14.6 1.3 -17.4 4.2 -34.6 12.6 -50.4 6.7 -12.6 13.4 -25.2 19.6 -38.1 13.5 -28.1 19 -58.3 23.8 -88.7 3.2 -20.1 8.1 -39.7 18.9 -56.8 16.3 -25.7 34 -50.5 53.3 -74.1 20 -24.4 35.3 -34.8 49.4 -63 5.5 -11 15.8 -32.8 26.8 -34 12.4 -1.4 24.8 -1.9 37.2 -1.9 0.2 0 0.4 -0 0.6 0 12.4 -0 24.9 0.5 37.2 1.9 11 1.2 21.3 23.1 26.8 34 14.1 28.2 29.4 38.6 49.4 63 19.3 23.6 37 48.4 53.3 74.1 10.9 17.1 15.8 36.7 18.9 56.8 4.8 30.3 10.3 60.6 23.8 88.7 6.2 12.9 12.8 25.5 19.6 38.1 8.4 15.7 11.3 32.9 12.6 50.4 0.7 9.1 -4.6 14.2 -13.8 14.6 -6 0.2 -12 0.1 -18 -0.2 -18.2 2.6 -24.3 -22.5 -32.3 -37 -34.1 -61.7 -70.8 -78.5 -130.6 -110.2 -12.9 0 -18.2 11 -47.4 11 -26.3 0 -34.1 -11 -47 -11 -59.7 31.7 -96.4 48.5 -130.6 110.2 -11.8 16.5 -13.7 36.1 -32.3 37 z m -4.2 -15.8 c 1.8 0.1 3.7 -0.8 5.4 -1.9 7.7 -4.5 11 -12.3 15.3 -20.1 -2.5 -0.3 -4.1 -0.3 -5.7 0.4 -5.3 2.3 -9.2 1.3 -12.8 -3.2 -1 -1.2 -2.4 -3 -3.6 -3 -2.1 0 -1.4 2.6 -1.9 4 -1.7 5.1 -2.4 10.4 -2.7 15.7 -0.2 3 0.7 5.8 3.3 7.3 0.9 0.5 1.7 0.7 2.5 0.7 z m 442.8 10.4 c 0.8 -0 1.7 -0.2 2.5 -0.7 2.7 -1.5 3.5 -4.3 3.3 -7.3 -0.3 -5.3 -1 -10.6 -2.7 -15.7 -0.5 -1.4 0.2 -4 -1.9 -4 -1.2 -0 -2.6 1.7 -3.6 3 -3.6 4.5 -7.5 5.5 -12.8 3.2 -1.6 -0.7 -3.2 -0.7 -5.7 -0.4 4.3 7.7 7.6 15.5 15.3 20.1 1.8 1 3.6 1.9 5.4 1.9 z M 180.7 419.7 c 1.1 -0 2.4 -0.4 3.9 -1.1 6.3 -3.1 11.6 -7.8 16.9 -12.2 11.2 -9.4 22.3 -18.9 31.8 -30.1 1.8 -2.1 3.6 -4.5 2.2 -7.2 -1.4 -2.9 -4.4 -3.8 -7.4 -3.9 -25.5 3.8 -40.6 12.2 -50.2 38.5 -1.2 3.4 -2.6 6.9 -1.9 10.7 0.7 3.6 2.2 5.4 4.6 5.4 z m 245.9 0 c 2.4 0 3.9 -1.7 4.6 -5.4 0.7 -3.8 -0.7 -7.2 -1.9 -10.7 -9.6 -26.3 -24.7 -34.7 -50.2 -38.5 -3 0.1 -6 1 -7.4 3.9 -1.3 2.7 0.5 5.1 2.2 7.2 9.6 11.1 20.7 20.6 31.8 30.1 5.3 4.5 10.6 9.1 16.9 12.2 1.5 0.8 2.8 1.1 3.9 1.1 z" id="face" inkscape:connector-curvature="0" sodipodi:nodetypes="cccccccsccscccscccccccccscccsccccccccssccccccccsscccccccsccccccccc" class="style3"/>
        </g>
      </g>
    </g>
  </g>
</svg>
