<?xml version="1.0" encoding="UTF-8" standalone="no"?>
<svg
   xmlns:dc="http://purl.org/dc/elements/1.1/"
   xmlns:cc="http://creativecommons.org/ns#"
   xmlns:rdf="http://www.w3.org/1999/02/22-rdf-syntax-ns#"
   xmlns:svg="http://www.w3.org/2000/svg"
   xmlns="http://www.w3.org/2000/svg"
   xmlns:sodipodi="http://sodipodi.sourceforge.net/DTD/sodipodi-0.dtd"
   xmlns:inkscape="http://www.inkscape.org/namespaces/inkscape"
   width="85.603"
   height="121.62"
   id="svg2"
   version="1.1"
   inkscape:version="0.48.5 r10040"
   sodipodi:docname="padlock-303266.svg">
  <metadata
     id="metadata16">
    <rdf:RDF>
      <cc:Work
         rdf:about="">
        <dc:format>image/svg+xml</dc:format>
        <dc:type
           rdf:resource="http://purl.org/dc/dcmitype/StillImage" />
        <dc:title></dc:title>
      </cc:Work>
    </rdf:RDF>
  </metadata>
  <defs
     id="defs14" />
  <sodipodi:namedview
     pagecolor="#ffffff"
     bordercolor="#666666"
     borderopacity="1"
     objecttolerance="10"
     gridtolerance="10"
     guidetolerance="10"
     inkscape:pageopacity="0"
     inkscape:pageshadow="2"
     inkscape:window-width="1440"
     inkscape:window-height="851"
     id="namedview12"
     showgrid="false"
     inkscape:zoom="5.4884788"
     inkscape:cx="1.6235478"
     inkscape:cy="46.253627"
     inkscape:window-x="0"
     inkscape:window-y="0"
     inkscape:window-maximized="1"
     inkscape:current-layer="svg2" />
  <g
     id="layer1"
     style="fill:#ffffff">
    <g
       id="g2061"
       stroke-linejoin="round"
       fill-rule="evenodd"
       stroke-linecap="round"
       stroke-width=".625"
       style="fill:#ffffff">
      <path
         id="rect2723"
         d="m42.801 0c-20.072 0-36.231 16.159-36.231 36.231v40.256h10.064v-40.256c0-14.496 11.67-26.167 26.167-26.167 14.496 0 26.167 11.67 26.167 26.167v40.256h10.064v-40.256c0-20.072-16.159-36.231-36.231-36.231z"
         style="fill:#ffffff" />
      <rect
         id="rect1941"
         rx=".5"
         ry=".5"
         height="66.259"
         width="85.603"
         y="55.359"
         x=".000001"
         style="fill:#ffffff" />
    </g>
  </g>
  <g
     id="g8"
     style="fill:#ffffff;stroke:#ffffff"
     stroke-width="5"
     fill="#fff">
    <circle
       id="svg_1"
       cy="80.963"
       cx="43.276"
       r="11.662"
       style="fill:#ffffff;stroke:#ffffff"
       stroke="#000"
       d="m 54.938001,80.962997 c 0,6.440745 -5.221255,11.662 -11.662,11.662 -6.440745,0 -11.662,-5.221255 -11.662,-11.662 0,-6.440744 5.221255,-11.661999 11.662,-11.661999 6.440745,0 11.662,5.221255 11.662,11.661999 z" />
    <path
       id="svg_10"
       stroke-linejoin="null"
       d="m 43.76,79.407 -4.786,21.618 9.316679,0.0843 z"
       stroke-linecap="null"
       inkscape:connector-curvature="0"
       style="stroke:#ffffff;stroke-dasharray:none;fill:#ffffff"
       sodipodi:nodetypes="cccc" />
  </g>
</svg>
